<?xml version="1.0" encoding="UTF-8"?>
<svg version="1.1" xmlns="http://www.w3.org/2000/svg" width="500" height="500">
<path d="M0 0 C1.32 0 2.64 0 4 0 C5.45703125 1.46875 5.45703125 1.46875 6.8125 3.5 C11.51613015 10.18223528 16.08389061 15.61417453 23 20 C23 20.66 23 21.32 23 22 C24.09634766 22.40605469 24.09634766 22.40605469 25.21484375 22.8203125 C27.90078175 23.95797488 30.12552166 25.28333563 32.5625 26.875 C46.90593574 35.38099096 63.98594884 36.57391306 80.26953125 32.9765625 C82.11611328 32.49316406 82.11611328 32.49316406 84 32 C83.58728959 35.92074888 82.57605953 39.20583955 81.0625 42.8125 C76.33132402 54.40818222 74.64558627 67.70286825 78.9765625 79.7421875 C85.99715389 95.2303624 99.36342307 102.8961983 114 110 C113.64160156 111.91552734 113.64160156 111.91552734 113 114 C110.734375 115.3515625 110.734375 115.3515625 107.75 116.625 C92.0843477 124.02888567 79.97485667 135.5226271 74 152 C72.41348801 159.64584093 72.6783401 166.43543802 74.5546875 173.98046875 C75.07847908 176.35590953 75.15641111 178.57562775 75 181 C73 182 73 182 70.93359375 181.44140625 C70.10988281 181.15136719 69.28617188 180.86132812 68.4375 180.5625 C59.93946809 177.91677127 52.1674786 178.29303426 44 182 C41.03196869 183.93000972 38.23263275 185.97824521 35.4453125 188.16015625 C33 190 33 190 30.8046875 190.99609375 C28.46451739 192.29787669 28.07885484 193.58478588 27 196 C25.96486527 197.3546882 24.89954011 198.68659685 23.8125 200 C20.18298945 204.54444967 17.41570115 209.37590931 14.67578125 214.49609375 C12.94422157 217.0833426 11.88105199 217.95177411 9 219 C8.55011719 218.12859375 8.10023438 217.2571875 7.63671875 216.359375 C1.61394765 205.06508418 -6.0408478 193.60227971 -18 188 C-19.08861328 187.41798828 -19.08861328 187.41798828 -20.19921875 186.82421875 C-32.49342071 181.20787217 -47.64554379 182.56692767 -60.0625 187 C-61.51375715 187.55721982 -62.96314329 188.11934974 -64.41015625 188.6875 C-68 190 -68 190 -72 190 C-71.855625 189.319375 -71.71125 188.63875 -71.5625 187.9375 C-68.19825278 170.36865342 -69.16866365 153.42607621 -79 138 C-81.4975536 134.88316995 -84.22522977 132.02742103 -87.0234375 129.1796875 C-89 127 -89 127 -89 125 C-89.66 125 -90.32 125 -91 125 C-91 124.34 -91 123.68 -91 123 C-91.81210938 122.63261719 -91.81210938 122.63261719 -92.640625 122.2578125 C-95.55061143 120.70646212 -98.0974196 118.83285696 -100.75 116.875 C-101.73484375 116.15054688 -102.7196875 115.42609375 -103.734375 114.6796875 C-104.48203125 114.12539063 -105.2296875 113.57109375 -106 113 C-104.58288034 109.50941051 -103.08900134 108.15376386 -99.875 106.25 C-86.81741572 97.90823669 -78.74203114 85.57880969 -74.6875 70.75 C-72.77714944 60.72520801 -73.6183551 50.07556968 -75.66015625 40.16015625 C-75.77230469 39.44730469 -75.88445312 38.73445313 -76 38 C-75.67 37.67 -75.34 37.34 -75 37 C-73.48782896 37.02001625 -71.97648566 37.10911001 -70.46875 37.2265625 C-51.10351634 38.54381332 -34.29966533 37.86453078 -18.171875 25.90234375 C-15.93485576 24.18484618 -15.93485576 24.18484618 -15 22 C-14.34 22 -13.68 22 -13 22 C-13 21.34 -13 20.68 -13 20 C-12.34 20 -11.68 20 -11 20 C-11 19.34 -11 18.68 -11 18 C-10.34 18 -9.68 18 -9 18 C-8.73316406 17.28070313 -8.46632813 16.56140625 -8.19140625 15.8203125 C-6.98951698 12.97518445 -5.56789377 10.4948465 -3.9375 7.875 C-2.27320598 5.19748052 -1.00009199 3.00027598 0 0 Z M2 31 C1.525625 31.94875 1.05125 32.8975 0.5625 33.875 C-6.08708575 45.37761675 -15.56804746 52.71939715 -28.2199707 56.37768555 C-32.99290057 57.4461143 -37.74975449 57.57359239 -42.625 57.6875 C-44.13126953 57.73874023 -44.13126953 57.73874023 -45.66796875 57.79101562 C-48.11186718 57.87247891 -50.55545281 57.94194922 -53 58 C-52.98428955 58.61407715 -52.9685791 59.2281543 -52.95239258 59.86083984 C-52.88923806 62.69879589 -52.85075823 65.53660333 -52.8125 68.375 C-52.78736328 69.34050781 -52.76222656 70.30601562 -52.73632812 71.30078125 C-52.64957752 79.9180085 -53.88009793 87.86083565 -59.125 94.9375 C-60.93179663 97.41397996 -62.01924424 99.05773273 -63 102 C-63.66 102 -64.32 102 -65 102 C-67.16666667 103.83333333 -67.16666667 103.83333333 -69 106 C-69 106.66 -69 107.32 -69 108 C-71.475 108.99 -71.475 108.99 -74 110 C-74 110.99 -74 111.98 -74 113 C-70.96344042 116.05076843 -70.96344042 116.05076843 -67 117 C-67 117.66 -67 118.32 -67 119 C-66.34 119 -65.68 119 -65 119 C-65 119.66 -65 120.32 -65 121 C-64.34 121 -63.68 121 -63 121 C-63 121.66 -63 122.32 -63 123 C-61.9171875 124.051875 -61.9171875 124.051875 -60.8125 125.125 C-52.98068884 132.77931969 -50.06826571 142.1816753 -49.8203125 152.99609375 C-49.78426305 157.66732005 -49.86812696 162.33071766 -50 167 C-48.27716797 166.54947266 -48.27716797 166.54947266 -46.51953125 166.08984375 C-33.64796201 162.87473268 -21.04449478 160.91385477 -9 168 C-1.67868167 173.42843662 3.92176244 179.84352488 8 188 C8.66 188 9.32 188 10 188 C11.52114684 185.81839451 12.93188376 183.64331825 14.3125 181.375 C20.6762487 170.98918867 26.82508864 165.596961 38.125 160.625 C43.86030967 159.37819355 49.297611 159.74727834 55 161 C54.85691406 159.76636719 54.85691406 159.76636719 54.7109375 158.5078125 C53.40593619 145.36675276 55.44273319 136.05696103 63.5 125.5 C68.37438059 120.03556281 75.47500172 115.26249914 82 112 C82 111.34 82 110.68 82 110 C80.18564097 108.87086688 78.32085937 107.82235036 76.4375 106.8125 C65.80721638 100.75236187 60.34793362 93.7463825 57 82 C56.31557199 74.00019206 56.56289091 66.52324142 59.34375 58.953125 C60.15925094 56.86944346 60.15925094 56.86944346 60 54 C59.67 54.33 59.34 54.66 59 55 C43.06613965 56.84449643 29.7612242 54.66081292 17 44.5625 C15.30920184 43.06854103 13.64048027 41.54904367 12 40 C10.91332031 38.9790625 10.91332031 38.9790625 9.8046875 37.9375 C5.26156496 33.52312992 5.26156496 33.52312992 4 31 C3.34 31 2.68 31 2 31 Z " fill="#F50497" transform="translate(246,157)"/>
<path d="M0 0 C3.2775842 0.58553792 4.92539337 1.58474495 7.3125 3.875 C14.1140559 9.85691809 20.24704527 10.42735945 29 10 C29.90579874 12.93755563 30.07390389 13.79214531 29 16.8125 C27.76164063 20.75977048 27.93115279 23.0096371 29 27 C32.0935731 31.50777794 35.40555684 34.2219646 40 37 C38.78296495 40.65110514 37.8655586 40.88327045 34.625 42.75 C30.21183804 45.59855923 28.35202711 47.77216185 27 53 C26.79901726 55.72283755 26.8559051 58.26219682 27 61 C24 62 24 62 20.8125 61.625 C15.30017253 62.16719614 12.6600515 65.02237354 9 69 C7.48791568 70.95257948 6.25100269 72.86287041 5 75 C2.42667974 72.42667974 -0.14388528 69.85276855 -2.6875 67.25 C-6.19015126 63.84201499 -8.08277835 63.86328308 -12.875 63.875 C-13.92429688 63.87242187 -14.97359375 63.86984375 -16.0546875 63.8671875 C-18.55676685 63.98001336 -20.61756923 64.27491238 -23 65 C-23.53618706 62.62545733 -23.97866278 60.30545914 -24.1484375 57.875 C-24.52937455 52.5056016 -25.42854707 49.24713321 -29 45 C-30.06829756 44.10670473 -31.15203515 43.23156832 -32.25 42.375 C-33.1575 41.59125 -34.065 40.8075 -35 40 C-35 36 -35 36 -33.5390625 34.47265625 C-32.90742188 34.00730469 -32.27578125 33.54195313 -31.625 33.0625 C-28.41426987 30.69078783 -27.14360406 28.84866751 -26 25 C-25.71878758 22.73703593 -25.51295111 20.46369338 -25.375 18.1875 C-25.30023438 17.02605469 -25.22546875 15.86460937 -25.1484375 14.66796875 C-25.09945312 13.78753906 -25.05046875 12.90710938 -25 12 C-23.83984375 11.96132812 -23.83984375 11.96132812 -22.65625 11.921875 C-16.11201089 11.56550554 -10.30358027 11.13997721 -5 7 C-3.03261221 4.75842858 -1.57311711 2.55631531 0 0 Z " fill="#F60197" transform="translate(248,230)"/>
<path d="M0 0 C-0.9423269 2.56998247 -1.68952295 3.79624944 -4 5.3125 C-8.42605613 6.32680453 -12.54229835 5.64052412 -17 5 C-16.95359375 5.7734375 -16.9071875 6.546875 -16.859375 7.34375 C-16.58838381 15.16378146 -17.32997471 20.65730161 -22.44921875 26.71484375 C-24 28 -24 28 -27 28 C-26.14583333 30.20833333 -26.14583333 30.20833333 -23.75 31.125 C-19.87189303 33.76916384 -17.66876055 36.59864404 -16 41 C-15.60442367 45.03982329 -15.69672743 48.95636572 -16 53 C-15.01 52.505 -15.01 52.505 -14 52 C-6.96730616 51.44506816 -1.2393361 51.59672576 5 55 C5 55.66 5 56.32 5 57 C5.61875 57.103125 6.2375 57.20625 6.875 57.3125 C9 58 9 58 11 61 C11.66 61 12.32 61 13 61 C13.144375 60.401875 13.28875 59.80375 13.4375 59.1875 C13.8872439 57.43849596 14.42892341 55.71322977 15 54 C17.97 53.505 17.97 53.505 21 53 C21 52.34 21 51.68 21 51 C24.3 51 27.6 51 31 51 C30.79375 49.80375 30.5875 48.6075 30.375 47.375 C29.86418162 43.4423982 30.43265283 40.6878757 32 37 C32.66 37 33.32 37 34 37 C34.226875 36.360625 34.45375 35.72125 34.6875 35.0625 C36 33 36 33 38.625 32.25 C39.40875 32.1675 40.1925 32.085 41 32 C40.59007812 32.44730469 40.18015625 32.89460938 39.7578125 33.35546875 C34.18841295 39.60438835 32.71734979 43.66181886 33 52 C30 53 30 53 26.8125 52.625 C21.30017253 53.16719614 18.6600515 56.02237354 15 60 C13.48791568 61.95257948 12.25100269 63.86287041 11 66 C8.42667974 63.42667974 5.85611472 60.85276855 3.3125 58.25 C-0.19015126 54.84201499 -2.08277835 54.86328308 -6.875 54.875 C-7.92429688 54.87242187 -8.97359375 54.86984375 -10.0546875 54.8671875 C-12.55676685 54.98001336 -14.61756923 55.27491238 -17 56 C-17.53618706 53.62545733 -17.97866278 51.30545914 -18.1484375 48.875 C-18.52937455 43.5056016 -19.42854707 40.24713321 -23 36 C-24.06829756 35.10670473 -25.15203515 34.23156832 -26.25 33.375 C-27.1575 32.59125 -28.065 31.8075 -29 31 C-29 27 -29 27 -27.5390625 25.47265625 C-26.90742188 25.00730469 -26.27578125 24.54195313 -25.625 24.0625 C-22.41426987 21.69078783 -21.14360406 19.84866751 -20 16 C-19.71878758 13.73703593 -19.51295111 11.46369338 -19.375 9.1875 C-19.30023438 8.02605469 -19.22546875 6.86460937 -19.1484375 5.66796875 C-19.09945312 4.78753906 -19.05046875 3.90710938 -19 3 C-18.19175781 2.95101562 -17.38351563 2.90203125 -16.55078125 2.8515625 C-15.48214844 2.77679688 -14.41351563 2.70203125 -13.3125 2.625 C-12.25675781 2.55539063 -11.20101562 2.48578125 -10.11328125 2.4140625 C-6.58159728 1.94435296 -3.48594319 0 0 0 Z " fill="#E861B1" transform="translate(242,239)"/>
<path d="M0 0 C2.475 0.495 2.475 0.495 5 1 C5.33 2.98 5.66 4.96 6 7 C6.66 7 7.32 7 8 7 C12.55679911 20.65005446 12.44374981 33.73173675 12 48 C12.59296875 47.4946875 13.1859375 46.989375 13.796875 46.46875 C16 45 16 45 19.25 45.5 C23.02593016 46.32788573 23.02593016 46.32788573 26.375 44.5625 C36.82262868 40.20932139 48.94769697 42.62865295 59.046875 46.61328125 C66.70661479 50.21011673 66.70661479 50.21011673 67.8125 53.1875 C67.9053125 54.0846875 67.9053125 54.0846875 68 55 C67.20335937 54.59007812 66.40671875 54.18015625 65.5859375 53.7578125 C64.52632813 53.21898437 63.46671875 52.68015625 62.375 52.125 C61.33085937 51.59132813 60.28671875 51.05765625 59.2109375 50.5078125 C46.58182046 44.57735121 31.90744092 45.32372623 18.9375 50 C17.48644938 50.55775742 16.0370838 51.11992845 14.58984375 51.6875 C11 53 11 53 7 53 C7.2165625 51.9790625 7.2165625 51.9790625 7.4375 50.9375 C11.04151832 32.11651543 8.53129128 17.11780128 0 0 Z " fill="#EB1D98" transform="translate(167,294)"/>
<path d="M0 0 C6 2 6 2 7.87719727 2.76123047 C14.44211988 5.28470752 20.52542908 5.41690974 27.5 5.3125 C29.11455078 5.31733398 29.11455078 5.31733398 30.76171875 5.32226562 C37.14174645 5.27952488 42.82962961 4.62685186 49 3 C48.58728959 6.92074888 47.57605953 10.20583955 46.0625 13.8125 C41.31799179 25.4408583 39.72136227 38.62007656 43.94140625 50.71484375 C45.83300626 54.79818695 48.34477452 58.38327226 51 62 C51.66 62.99 52.32 63.98 53 65 C50.203125 64.87890625 50.203125 64.87890625 47 64 C45.171875 61.33984375 45.171875 61.33984375 43.75 57.9375 C43.27046875 56.83277344 42.7909375 55.72804687 42.296875 54.58984375 C39.83118157 47.7646261 38.67116847 41.69657036 38.75 34.4375 C38.73839844 33.36338867 38.73839844 33.36338867 38.7265625 32.26757812 C38.74384975 27.51790741 39.56307655 23.56305462 41 19 C41.25055521 17.52739724 41.46862543 16.04805841 41.625 14.5625 C41.810625 12.7990625 41.810625 12.7990625 42 11 C39.68260126 9.84130063 38.24888282 9.84669225 35.66796875 9.7890625 C7.85461022 8.95694048 7.85461022 8.95694048 0 2 C0 1.34 0 0.68 0 0 Z " fill="#EE1599" transform="translate(281,186)"/>
<path d="M0 0 C0.66 0 1.32 0 2 0 C1.855625 0.68964844 1.71125 1.37929688 1.5625 2.08984375 C-0.18231887 10.9229893 -0.62242507 18.22602313 1.5546875 26.98046875 C2.07847908 29.35590953 2.15641111 31.57562775 2 34 C0 35 0 35 -2.06640625 34.44140625 C-2.89011719 34.15136719 -3.71382813 33.86132812 -4.5625 33.5625 C-12.65355376 31.04347753 -18.77414605 31.57361602 -26.73828125 34.34375 C-29 35 -29 35 -33 35 C-30.49878973 33.33252648 -28.29746143 32.18069161 -25.5625 31 C-23.29152669 30.01629583 -21.0857943 29.04732368 -18.91796875 27.8515625 C-16.09914855 26.60002929 -13.93341394 27.33331501 -11 28 C-10.67 27.01 -10.34 26.02 -10 25 C-9.01 25 -8.02 25 -7 25 C-6.67 22.69 -6.34 20.38 -6 18 C-5.34 18.33 -4.68 18.66 -4 19 C-3.67 15.04 -3.34 11.08 -3 7 C-2.34 7 -1.68 7 -1 7 C-0.67 4.69 -0.34 2.38 0 0 Z " fill="#F10998" transform="translate(319,304)"/>
<path d="M0 0 C0.33 0.99 0.66 1.98 1 3 C-0.40333195 5.35255857 -1.82161123 7.49093839 -3.4375 9.6875 C-3.87126953 10.29400391 -4.30503906 10.90050781 -4.75195312 11.52539062 C-5.82544245 13.02355704 -6.91155165 14.5126661 -8 16 C-8.99 15.67 -9.98 15.34 -11 15 C-11.33 15.99 -11.66 16.98 -12 18 C-13.32 18 -14.64 18 -16 18 C-16 18.66 -16 19.32 -16 20 C-13.75812654 20.58122645 -11.68936432 21.02958435 -9.375 21.25 C-8.59125 21.4975 -7.8075 21.745 -7 22 C-6.30959426 23.65697379 -5.6469365 25.3255761 -5 27 C-3.00334402 28.67067133 -1.00348966 30.33752986 1 32 C1.875 34.3125 1.875 34.3125 2 36 C2.66 36 3.32 36 4 36 C4.33 36.99 4.66 37.98 5 39 C6.49985609 40.66710346 6.49985609 40.66710346 8 42 C7.34 42.66 6.68 43.32 6 44 C4.49405319 42.38050958 2.99539332 40.75424026 1.5 39.125 C0.6646875 38.22007812 -0.170625 37.31515625 -1.03125 36.3828125 C-3 34 -3 34 -3 32 C-3.66 32 -4.32 32 -5 32 C-5 31.34 -5 30.68 -5 30 C-5.54140625 29.75507813 -6.0828125 29.51015625 -6.640625 29.2578125 C-9.55061143 27.70646212 -12.0974196 25.83285696 -14.75 23.875 C-15.73484375 23.15054687 -16.7196875 22.42609375 -17.734375 21.6796875 C-18.48203125 21.12539063 -19.2296875 20.57109375 -20 20 C-18.58288034 16.50941051 -17.08900134 15.15376386 -13.875 13.25 C-8.64623079 9.93336969 -2.82880123 5.65760247 0 0 Z " fill="#EB38A6" transform="translate(160,250)"/>
<path d="M0 0 C3.91431384 0.41203304 7.39282954 0.80762916 11.15625 2 C15.79195725 3.20603766 20.1691684 3.45094683 24.9375 3.625 C25.81212891 3.66367188 26.68675781 3.70234375 27.58789062 3.7421875 C29.72494631 3.8356107 31.86244294 3.91885398 34 4 C34 3.34 34 2.68 34 2 C35.65 2 37.3 2 39 2 C38.67 3.65 38.34 5.3 38 7 C37.34 7 36.68 7 36 7 C34.20073662 13.07251389 33.75421258 18.82964156 33.6875 25.125 C33.67009766 25.8886084 33.65269531 26.6522168 33.63476562 27.43896484 C33.63813314 31.32928672 33.94348149 34.309994 35.58203125 37.8671875 C37 41 37 41 36 44 C35.35242375 42.56328432 34.70700547 41.12559584 34.0625 39.6875 C33.52302734 38.48673828 33.52302734 38.48673828 32.97265625 37.26171875 C28.85396377 27.68451817 30.44881925 16.5120913 34 7 C34 6.67 34 6.34 34 6 C33.43192627 6.02618408 32.86385254 6.05236816 32.27856445 6.0793457 C20.42190129 6.55274932 10.75144944 6.58516854 0 1 C0 0.67 0 0.34 0 0 Z " fill="#E556AE" transform="translate(271,207)"/>
<path d="M0 0 C1.32 0 2.64 0 4 0 C5.45703125 1.46875 5.45703125 1.46875 6.8125 3.5 C11.51613015 10.18223528 16.08389061 15.61417453 23 20 C23 20.66 23 21.32 23 22 C23.70125 22.2475 24.4025 22.495 25.125 22.75 C28.37002459 24.16088026 31.10316737 25.97895398 34 28 C31.46100862 28.9435441 30.39090725 29.16906025 27.859375 28.07421875 C27.16328125 27.61660156 26.4671875 27.15898437 25.75 26.6875 C25.04359375 26.23761719 24.3371875 25.78773438 23.609375 25.32421875 C23.07828125 24.88722656 22.5471875 24.45023438 22 24 C22 23.34 22 22.68 22 22 C21.01 22 20.02 22 19 22 C18.95875 21.38125 18.9175 20.7625 18.875 20.125 C18.441875 19.073125 18.441875 19.073125 18 18 C17.05125 17.690625 16.1025 17.38125 15.125 17.0625 C11.25473744 15.74661073 10.94075674 14.45960984 9 11 C6.50240018 9.30117552 6.50240018 9.30117552 4 8 C3.34 7.34 2.68 6.68 2 6 C1.01 7.485 1.01 7.485 0 9 C-0.99 9 -1.98 9 -3 9 C-3 9.99 -3 10.98 -3 12 C-3.66 12 -4.32 12 -5 12 C-3.41037341 7.96479403 -1.71767682 3.98188718 0 0 Z " fill="#EB57B2" transform="translate(246,157)"/>
<path d="M0 0 C-1.4334152 1.15093925 -2.87188909 2.29558035 -4.3125 3.4375 C-5.11300781 4.07558594 -5.91351563 4.71367187 -6.73828125 5.37109375 C-9 7 -9 7 -12 8 C-12.71363297 9.30879723 -13.37423264 10.64698949 -14 12 C-15.03513473 13.3546882 -16.10045989 14.68659685 -17.1875 16 C-20.81701055 20.54444967 -23.58429885 25.37590931 -26.32421875 30.49609375 C-28.05577843 33.0833426 -29.11894801 33.95177411 -32 35 C-35 30.25 -35 30.25 -35 28 C-32.00667261 28.9977758 -31.05233685 29.7522025 -29 32 C-28.896875 31.29875 -28.79375 30.5975 -28.6875 29.875 C-27.89428228 26.55790773 -26.7340914 23.93461621 -25 21 C-24.01 20.67 -23.02 20.34 -22 20 C-22 18.35 -22 16.7 -22 15 C-20.68 14.67 -19.36 14.34 -18 14 C-18 12.68 -18 11.36 -18 10 C-17.01 9.67 -16.02 9.34 -15 9 C-14.67 8.01 -14.34 7.02 -14 6 C-13.34 6 -12.68 6 -12 6 C-12 5.34 -12 4.68 -12 4 C-11.01 4 -10.02 4 -9 4 C-9 3.01 -9 2.02 -9 1 C-5.47051709 -0.66670026 -3.71727674 -1.13583456 0 0 Z " fill="#EA3BA7" transform="translate(287,341)"/>
<path d="M0 0 C0.66 0 1.32 0 2 0 C1.80664062 0.61746094 1.61328125 1.23492187 1.4140625 1.87109375 C0.58315814 4.57358962 -0.2136513 7.28422009 -1 10 C-1.21269531 10.70640625 -1.42539062 11.4128125 -1.64453125 12.140625 C-4.35109363 22.34378104 -4.48846547 34.31087712 0 44 C1.83400668 47.13492875 3.85200265 50.07417631 6 53 C6.66 53.99 7.32 54.98 8 56 C5.203125 55.87890625 5.203125 55.87890625 2 55 C0.171875 52.33984375 0.171875 52.33984375 -1.25 48.9375 C-1.72953125 47.83277344 -2.2090625 46.72804687 -2.703125 45.58984375 C-5.14112811 38.84127491 -6.36642656 32.74453742 -6.3125 25.5625 C-6.30976074 24.81822754 -6.30702148 24.07395508 -6.30419922 23.30712891 C-6.19772503 17.71050276 -5.19948727 13.15370056 -3 8 C-2.60617563 6.672105 -2.22987096 5.33883135 -1.875 4 C-1 1 -1 1 0 0 Z " fill="#EA44A9" transform="translate(326,195)"/>
<path d="M0 0 C0.89468994 0.05349609 1.78937988 0.10699219 2.71118164 0.16210938 C3.70053711 0.21496094 4.68989258 0.2678125 5.70922852 0.32226562 C7.78226429 0.44262718 9.85518716 0.5649532 11.92797852 0.68945312 C18.38050527 1.03015319 24.52721289 0.86445179 30.93383789 0.00585938 C31.42883789 0.99585938 31.42883789 0.99585938 31.93383789 2.00585938 C27.16541711 3.22952744 22.50721388 3.1536728 17.62133789 3.13085938 C16.39640625 3.13666016 16.39640625 3.13666016 15.14672852 3.14257812 C9.98824654 3.13435744 5.03923409 2.74611245 -0.06616211 2.00585938 C0.09537354 2.70855957 0.25690918 3.41125977 0.42333984 4.13525391 C1.34901193 9.34044395 1.11842443 14.60750193 1.12133789 19.88085938 C1.13358398 21.03972656 1.14583008 22.19859375 1.15844727 23.39257812 C1.17237493 31.51705066 0.10897942 37.52159721 -3.06616211 45.00585938 C-3.72616211 45.00585938 -4.38616211 45.00585938 -5.06616211 45.00585938 C-4.77741211 44.03648437 -4.48866211 43.06710938 -4.19116211 42.06835938 C-0.43722259 28.79753135 0.08307089 16.8089974 -2.72631836 3.16601562 C-2.8384668 2.45316406 -2.95061523 1.7403125 -3.06616211 1.00585938 C-2.06616211 0.00585938 -2.06616211 0.00585938 0 0 Z " fill="#E351A9" transform="translate(173.066162109375,193.994140625)"/>
<path d="M0 0 C2.171875 1.58203125 2.171875 1.58203125 2.984375 3.76953125 C3.04625 4.36765625 3.108125 4.96578125 3.171875 5.58203125 C2.37523437 5.17210937 1.57859375 4.7621875 0.7578125 4.33984375 C-0.30179688 3.80101562 -1.36140625 3.2621875 -2.453125 2.70703125 C-3.49726563 2.17335938 -4.54140625 1.6396875 -5.6171875 1.08984375 C-12.37273649 -2.08247001 -17.7676763 -2.73058403 -25.140625 -2.66796875 C-26.48930664 -2.67957031 -26.48930664 -2.67957031 -27.86523438 -2.69140625 C-33.80808509 -2.67421796 -39.07161972 -1.89670405 -44.828125 -0.41796875 C-33.46717635 -12.56125817 -12.67783957 -6.35643061 0 0 Z " fill="#E62C9B" transform="translate(231.828125,343.41796875)"/>
<path d="M0 0 C0.70511719 0.16371094 1.41023438 0.32742187 2.13671875 0.49609375 C5.09658688 1.01699824 7.81061273 1.09866732 10.8125 1.0625 C11.78832031 1.05347656 12.76414062 1.04445312 13.76953125 1.03515625 C14.50558594 1.02355469 15.24164063 1.01195312 16 1 C16.90579874 3.93755563 17.07390389 4.79214531 16 7.8125 C14.76164063 11.75977048 14.93115279 14.0096371 16 18 C19.0935731 22.50777794 22.40555684 25.2219646 27 28 C26.67 28.99 26.34 29.98 26 31 C23.9375 31.6875 23.9375 31.6875 22 32 C21.67 31.34 21.34 30.68 21 30 C21.99 30 22.98 30 24 30 C24 29.34 24 28.68 24 28 C22.02 27.67 20.04 27.34 18 27 C17.505 24.525 17.505 24.525 17 22 C16.01 21.67 15.02 21.34 14 21 C12.97164637 17.91493912 12.86631566 15.7305728 12.875 12.5 C12.87113281 11.06140625 12.87113281 11.06140625 12.8671875 9.59375 C13 7 13 7 14 4 C13.32453125 4.02320313 12.6490625 4.04640625 11.953125 4.0703125 C10.61507813 4.09738281 10.61507813 4.09738281 9.25 4.125 C8.36828125 4.14820313 7.4865625 4.17140625 6.578125 4.1953125 C3.8864142 3.99139502 2.30095026 3.36551721 0 2 C0 1.34 0 0.68 0 0 Z " fill="#E863B5" transform="translate(261,239)"/>
<path d="M0 0 C5.81810709 2.27609464 8.23775666 7.69569214 11 13 C14.89955518 22.63980948 14.30600156 32.79994813 14 43 C14.66 43 15.32 43 16 43 C16 43.66 16 44.32 16 45 C14.35 45.66 12.7 46.32 11 47 C11.01571045 46.28457031 11.0314209 45.56914062 11.04760742 44.83203125 C11.11040747 41.55476961 11.14913303 38.2776351 11.1875 35 C11.21263672 33.87464844 11.23777344 32.74929688 11.26367188 31.58984375 C11.32208367 24.93089954 10.81282614 20.04894165 8 14 C7.66097656 13.18789063 7.32195312 12.37578125 6.97265625 11.5390625 C6.67230469 10.90742188 6.37195313 10.27578125 6.0625 9.625 C5.76472656 8.97789062 5.46695313 8.33078125 5.16015625 7.6640625 C3.72378146 5.60380775 2.29261347 4.94767739 0 4 C0 2.68 0 1.36 0 0 Z " fill="#EB69B8" transform="translate(183,280)"/>
<path d="M0 0 C1.93154258 0.65091088 1.93154258 0.65091088 3.8515625 -0.57421875 C3.8515625 0.41578125 3.8515625 1.40578125 3.8515625 2.42578125 C2.70558594 2.47476562 1.55960937 2.52375 0.37890625 2.57421875 C-1.15106285 2.64930926 -2.68100968 2.72485431 -4.2109375 2.80078125 C-5.33918945 2.8471875 -5.33918945 2.8471875 -6.49023438 2.89453125 C-11.33805031 3.14636584 -15.53151793 3.9174649 -20.1484375 5.42578125 C-20.1484375 6.41578125 -20.1484375 7.40578125 -20.1484375 8.42578125 C-25.32421875 11.6484375 -25.32421875 11.6484375 -27.1484375 12.42578125 C-28.1384375 12.09578125 -29.1284375 11.76578125 -30.1484375 11.42578125 C-28.00269658 5.66222134 -22.36868572 3.9541066 -17.1484375 1.42578125 C-11.74499661 -0.95173274 -5.75174635 -1.53728493 0 0 Z " fill="#EB46AB" transform="translate(298.1484375,316.57421875)"/>
<path d="M0 0 C-0.9423269 2.56998247 -1.68952295 3.79624944 -4 5.3125 C-8.42605613 6.32680453 -12.54229835 5.64052412 -17 5 C-16.95359375 5.7734375 -16.9071875 6.546875 -16.859375 7.34375 C-16.61332347 14.44409421 -17.05138051 19.02066191 -21 25 C-21.99 25.33 -22.98 25.66 -24 26 C-23.51222439 23.46356681 -22.86904555 21.78719902 -21.5 19.5625 C-19.24462814 14.20599184 -19.24782221 8.75972989 -19 3 C-18.19175781 2.95101562 -17.38351563 2.90203125 -16.55078125 2.8515625 C-15.48214844 2.77679688 -14.41351563 2.70203125 -13.3125 2.625 C-11.72888672 2.52058594 -11.72888672 2.52058594 -10.11328125 2.4140625 C-6.58159728 1.94435296 -3.48594319 0 0 0 Z " fill="#EA51AD" transform="translate(242,239)"/>
<path d="M0 0 C0.66 0.33 1.32 0.66 2 1 C1.690625 1.515625 1.38125 2.03125 1.0625 2.5625 C-0.18501795 5.10851407 -0.18501795 5.10851407 -0.4375 8.5625 C-1.02125606 12.12989817 -1.36243631 12.80203026 -4 15 C-4.33 15.99 -4.66 16.98 -5 18 C-6.32 17.67 -7.64 17.34 -9 17 C-9 16.34 -9 15.68 -9 15 C-9.99 15 -10.98 15 -12 15 C-12 14.34 -12 13.68 -12 13 C-11.34 13 -10.68 13 -10 13 C-10 12.34 -10 11.68 -10 11 C-9.34 11 -8.68 11 -8 11 C-8 10.34 -8 9.68 -8 9 C-7.34 9 -6.68 9 -6 9 C-5.7525 8.195625 -5.505 7.39125 -5.25 6.5625 C-4 4 -4 4 -1.875 3.1875 C-1.25625 3.125625 -0.6375 3.06375 0 3 C0 2.01 0 1.02 0 0 Z " fill="#F20A9B" transform="translate(243,166)"/>
<path d="M0 0 C2.1519437 3.22791555 2.20086443 4.28400809 2 8 C0 9 0 9 -2.06640625 8.44140625 C-2.89011719 8.15136719 -3.71382813 7.86132812 -4.5625 7.5625 C-12.65355376 5.04347753 -18.77414605 5.57361602 -26.73828125 8.34375 C-29 9 -29 9 -33 9 C-24.65005549 3.43337032 -17.10892593 1.68453602 -7 3 C-3.57421875 4.52734375 -3.57421875 4.52734375 -1 6 C-1.020625 5.195625 -1.04125 4.39125 -1.0625 3.5625 C-1 1 -1 1 0 0 Z " fill="#E93DA2" transform="translate(319,330)"/>
<path d="M0 0 C2.475 0.495 2.475 0.495 5 1 C5.33 2.98 5.66 4.96 6 7 C6.66 7 7.32 7 8 7 C10.72027504 15.43609106 11.30155584 23.37676433 11.3125 32.1875 C11.31765625 33.21560791 11.3228125 34.24371582 11.328125 35.30297852 C11.25864807 42.74135193 11.25864807 42.74135193 9 45 C9.03480469 43.69546875 9.06960937 42.3909375 9.10546875 41.046875 C9.40142407 25.44345297 7.02396198 14.09338649 0 0 Z " fill="#E456AB" transform="translate(167,294)"/>
<path d="M0 0 C3.54243452 1.36591169 6.92627929 2.90931484 10.3125 4.625 C11.63701172 5.29402344 11.63701172 5.29402344 12.98828125 5.9765625 C13.65214844 6.31429688 14.31601562 6.65203125 15 7 C14.74609375 8.859375 14.74609375 8.859375 14 11 C12.22265625 12.265625 12.22265625 12.265625 10.0625 13.25 C9.35222656 13.58515625 8.64195312 13.9203125 7.91015625 14.265625 C6 15 6 15 4 15 C4 14.01 4 13.02 4 12 C4.99 12 5.98 12 7 12 C6.45276317 8.62537285 5.9451 6.91765 4 4 C1.94996045 2.80767387 1.94996045 2.80767387 0 2 C0 1.34 0 0.68 0 0 Z " fill="#E864B5" transform="translate(345,260)"/>
<path d="M0 0 C6 2 6 2 7.875 2.74804688 C14.41241694 5.23053191 20.61953034 5.54102385 27.5625 5.6875 C28.66658203 5.72166016 29.77066406 5.75582031 30.90820312 5.79101562 C33.60536703 5.87274786 36.30223643 5.94213826 39 6 C36.60809204 8.39190796 36.07482373 8.25592011 32.81640625 8.265625 C31.97609863 8.26981445 31.13579102 8.27400391 30.27001953 8.27832031 C29.37653809 8.26897461 28.48305664 8.25962891 27.5625 8.25 C26.65612793 8.24323242 25.74975586 8.23646484 24.81591797 8.22949219 C6.88345954 7.95326231 6.88345954 7.95326231 0 2 C0 1.34 0 0.68 0 0 Z " fill="#EB67BA" transform="translate(281,186)"/>
<path d="M0 0 C-0.33 0.66 -0.66 1.32 -1 2 C-1.56380371 1.78561279 -2.12760742 1.57122559 -2.70849609 1.3503418 C-10.09722281 -1.18920956 -16.86655755 -1.35616179 -24.625 -1.1875 C-25.81996094 -1.17396484 -27.01492187 -1.16042969 -28.24609375 -1.14648438 C-31.164548 -1.11146292 -34.08202348 -1.06234993 -37 -1 C-25.06464363 -7.1244965 -11.81506841 -5.73417542 0 0 Z " fill="#EF65BA" transform="translate(237,324)"/>
<path d="M0 0 C0.99 0 1.98 0 3 0 C1.56215806 4.45240829 -0.86816476 7.55419175 -4 10.9375 C-4.48404297 11.46239014 -4.96808594 11.98728027 -5.46679688 12.52807617 C-9.65756958 16.91844192 -14.25339456 20.8235804 -20 23 C-20.99 22.67 -21.98 22.34 -23 22 C-21.68 21.67 -20.36 21.34 -19 21 C-19 20.34 -19 19.68 -19 19 C-18.34 19 -17.68 19 -17 19 C-16.690625 18.071875 -16.690625 18.071875 -16.375 17.125 C-14.46293283 14.1699871 -12.27219312 14.04431695 -9 13 C-8.67 12.01 -8.34 11.02 -8 10 C-7.01 10 -6.02 10 -5 10 C-4.67 8.68 -4.34 7.36 -4 6 C-3.34 6 -2.68 6 -2 6 C-2 5.01 -2 4.02 -2 3 C-1.34 3 -0.68 3 0 3 C0 2.01 0 1.02 0 0 Z " fill="#E93FA3" transform="translate(245,189)"/>
<path d="M0 0 C3.82312326 0.95578081 4.86262275 1.44892666 7.625 3.9375 C8.21539062 4.46214844 8.80578125 4.98679688 9.4140625 5.52734375 C10.63338745 6.65957406 11.82341622 7.82341622 13 9 C12.01 9.33 11.02 9.66 10 10 C10 9.34 10 8.68 10 8 C9.38125 7.690625 8.7625 7.38125 8.125 7.0625 C6.75 6.375 5.375 5.6875 4 5 C3.67 6.32 3.34 7.64 3 9 C2.34 9 1.68 9 1 9 C1 8.34 1 7.68 1 7 C-1.31 7.66 -3.62 8.32 -6 9 C-4.02 6.03 -2.04 3.06 0 0 Z " fill="#EC42A8" transform="translate(248,230)"/>
<path d="M0 0 C0.61359375 0.19078125 1.2271875 0.3815625 1.859375 0.578125 C1.06273437 1.24457031 0.26609375 1.91101563 -0.5546875 2.59765625 C-7.47779957 8.55995204 -12.38832112 14.06961139 -16.140625 22.578125 C-16.470625 22.578125 -16.800625 22.578125 -17.140625 22.578125 C-16.810625 20.268125 -16.480625 17.958125 -16.140625 15.578125 C-15.480625 15.578125 -14.820625 15.578125 -14.140625 15.578125 C-14.140625 14.588125 -14.140625 13.598125 -14.140625 12.578125 C-13.480625 12.578125 -12.820625 12.578125 -12.140625 12.578125 C-12.016875 11.794375 -11.893125 11.010625 -11.765625 10.203125 C-11.140625 7.578125 -11.140625 7.578125 -9.140625 5.578125 C-8.150625 5.578125 -7.160625 5.578125 -6.140625 5.578125 C-6.140625 4.588125 -6.140625 3.598125 -6.140625 2.578125 C-2.97599085 -0.58650915 -2.97599085 -0.58650915 0 0 Z " fill="#EC5DB8" transform="translate(338.140625,281.421875)"/>
<path d="M0 0 C0.66 0 1.32 0 2 0 C1.7834375 0.98226563 1.7834375 0.98226563 1.5625 1.984375 C0.27854228 8.29716713 -0.14290083 14.12841447 0.125 20.56640625 C0 23 0 23 -2 25 C-3 24 -3 24 -3.09765625 20.18359375 C-3.09098089 18.60153318 -3.07901875 17.01948841 -3.0625 15.4375 C-3.05798828 14.63119141 -3.05347656 13.82488281 -3.04882812 12.99414062 C-3.03700518 10.99606244 -3.01906914 8.99802217 -3 7 C-2.34 7 -1.68 7 -1 7 C-0.67 4.69 -0.34 2.38 0 0 Z " fill="#ED3AA8" transform="translate(319,304)"/>
<path d="M0 0 C0.33 0 0.66 0 1 0 C1.125 5.75 1.125 5.75 0 8 C-0.66 8 -1.32 8 -2 8 C-1.979375 8.969375 -1.95875 9.93875 -1.9375 10.9375 C-2 14 -2 14 -3 15 C-3.23527773 17.34987262 -3.41386417 19.70556039 -3.5625 22.0625 C-3.64628906 23.35285156 -3.73007812 24.64320313 -3.81640625 25.97265625 C-3.87699219 26.97167969 -3.93757813 27.97070312 -4 29 C-4.33 29 -4.66 29 -5 29 C-6.5512195 17.97376413 -5.41555494 9.74799889 0 0 Z " fill="#E658AE" transform="translate(305,287)"/>
<path d="M0 0 C0.66 0 1.32 0 2 0 C1.80664062 0.61746094 1.61328125 1.23492187 1.4140625 1.87109375 C-1.80990833 12.35697906 -3.40580225 22.00734171 -4 33 C-4.33 33 -4.66 33 -5 33 C-5.05816623 29.58340509 -5.09365195 26.16693795 -5.125 22.75 C-5.14175781 21.78191406 -5.15851563 20.81382812 -5.17578125 19.81640625 C-5.18222656 18.88183594 -5.18867188 17.94726562 -5.1953125 16.984375 C-5.20578613 16.12553711 -5.21625977 15.26669922 -5.22705078 14.38183594 C-4.97939051 11.78379985 -4.24622082 10.26847976 -3 8 C-2.32811503 5.66816393 -1.66084583 3.33498858 -1 1 C-0.67 0.67 -0.34 0.34 0 0 Z " fill="#F16CBE" transform="translate(326,195)"/>
<path d="M0 0 C2.06723714 3.10085571 2.24497423 3.72931681 2.1953125 7.23046875 C2.18886719 8.03291016 2.18242187 8.83535156 2.17578125 9.66210938 C2.15902344 10.49548828 2.14226562 11.32886719 2.125 12.1875 C2.11597656 13.03248047 2.10695312 13.87746094 2.09765625 14.74804688 C2.07410703 16.83215243 2.03823647 18.91611217 2 21 C2.66 21 3.32 21 4 21 C4 21.66 4 22.32 4 23 C2.35 23.66 0.7 24.32 -1 25 C-0.67 16.75 -0.34 8.5 0 0 Z " fill="#E752AF" transform="translate(195,302)"/>
<path d="M0 0 C1.32 0 2.64 0 4 0 C6 6.625 6 6.625 6 10 C4.68 8.68 3.36 7.36 2 6 C1.01 7.485 1.01 7.485 0 9 C-0.99 9 -1.98 9 -3 9 C-3 9.99 -3 10.98 -3 12 C-3.66 12 -4.32 12 -5 12 C-3.41037341 7.96479403 -1.71767682 3.98188718 0 0 Z " fill="#EA44A9" transform="translate(246,157)"/>
<path d="M0 0 C6.27 0.33 12.54 0.66 19 1 C19 1.33 19 1.66 19 2 C13.39 2 7.78 2 2 2 C2.33 3.98 2.66 5.96 3 8 C3.06656312 10.63589958 3.09567411 13.24148596 3.0625 15.875 C3.05798828 16.56335938 3.05347656 17.25171875 3.04882812 17.9609375 C3.03716336 19.64066335 3.01923271 21.32034375 3 23 C2.67 23 2.34 23 2 23 C1.93941406 22.17757812 1.87882813 21.35515625 1.81640625 20.5078125 C1.30242485 13.65999879 0.71357061 6.82989011 0 0 Z " fill="#F21E9F" transform="translate(190,212)"/>
<path d="M0 0 C0.33 1.32 0.66 2.64 1 4 C0.01 4.33 -0.98 4.66 -2 5 C-2.1546875 6.1446875 -2.1546875 6.1446875 -2.3125 7.3125 C-3.0527101 10.20604856 -3.70989294 11.16791435 -6 13 C-6.99 13.495 -6.99 13.495 -8 14 C-8.33 14.99 -8.66 15.98 -9 17 C-9.66 17 -10.32 17 -11 17 C-9.62666848 13.17527171 -7.85872294 10.11571157 -5.5 6.8125 C-4.8915625 5.95269531 -4.283125 5.09289062 -3.65625 4.20703125 C-2 2 -2 2 0 0 Z " fill="#EB3DA6" transform="translate(267,328)"/>
<path d="M0 0 C1.32 0 2.64 0 4 0 C4 0.99 4 1.98 4 3 C4.66 3 5.32 3 6 3 C6 3.66 6 4.32 6 5 C7.65 5 9.3 5 11 5 C11 6.65 11 8.3 11 10 C11.66 10 12.32 10 13 10 C13 10.66 13 11.32 13 12 C9.02031425 10.66182195 6.61251238 8.99662286 3.6875 6 C2.99011719 5.29875 2.29273438 4.5975 1.57421875 3.875 C0 2 0 2 0 0 Z " fill="#EB45AA" transform="translate(308,251)"/>
<path d="M0 0 C0.99 0.33 1.98 0.66 3 1 C1.02 1.99 1.02 1.99 -1 3 C-1 3.66 -1 4.32 -1 5 C-2.62626404 6.38232443 -4.2925002 7.71937515 -6 9 C-5.24203125 9.50660156 -5.24203125 9.50660156 -4.46875 10.0234375 C-3.8190625 10.46945312 -3.169375 10.91546875 -2.5 11.375 C-1.8503125 11.81585938 -1.200625 12.25671875 -0.53125 12.7109375 C-0.0259375 13.13632812 0.479375 13.56171875 1 14 C1 14.66 1 15.32 1 16 C0.01 16 -0.98 16 -2 16 C-2 15.34 -2 14.68 -2 14 C-2.598125 13.938125 -3.19625 13.87625 -3.8125 13.8125 C-6.90339529 12.66445318 -7.5880344 10.89452948 -9 8 C-9 7.34 -9 6.68 -9 6 C-7.68 6 -6.36 6 -5 6 C-5 5.34 -5 4.68 -5 4 C-4.01 4 -3.02 4 -2 4 C-1.34 2.68 -0.68 1.36 0 0 Z " fill="#E84CA9" transform="translate(178,260)"/>
<path d="M0 0 C2.0625 0.4375 2.0625 0.4375 4 1 C2.8553125 1.7734375 2.8553125 1.7734375 1.6875 2.5625 C-2.63049486 6.47882092 -4.14070467 11.32865082 -5 17 C-7 15 -7 15 -7.01171875 13.125 C-6.90472656 12.42375 -6.79773438 11.7225 -6.6875 11 C-6.58824219 10.29875 -6.48898437 9.5975 -6.38671875 8.875 C-6 7 -6 7 -5 5 C-4.34 5 -3.68 5 -3 5 C-2.690625 4.360625 -2.38125 3.72125 -2.0625 3.0625 C-1 1 -1 1 0 0 Z " fill="#EC4FAD" transform="translate(279,271)"/>
<path d="M0 0 C-0.99 2.97 -1.98 5.94 -3 9 C-3.99 8.67 -4.98 8.34 -6 8 C-6.33 7.34 -6.66 6.68 -7 6 C-7.99 5.67 -8.98 5.34 -10 5 C-10.6875 2.9375 -10.6875 2.9375 -11 1 C-10.2575 1.391875 -9.515 1.78375 -8.75 2.1875 C-7.8425 2.455625 -6.935 2.72375 -6 3 C-1.22727273 0 -1.22727273 0 0 0 Z " fill="#F21A9E" transform="translate(261,364)"/>
<path d="M0 0 C0.33 1.32 0.66 2.64 1 4 C0.360625 4.37125 -0.27875 4.7425 -0.9375 5.125 C-3.6653054 7.6048231 -3.76949845 9.38880901 -4 13 C-3.67 13.66 -3.34 14.32 -3 15 C-4.98 16.32 -6.96 17.64 -9 19 C-9 18.01 -9 17.02 -9 16 C-8.34 16 -7.68 16 -7 16 C-6.99742187 15.43152344 -6.99484375 14.86304688 -6.9921875 14.27734375 C-6.66558274 7.75613543 -4.69061926 4.46110884 0 0 Z " fill="#F00D94" transform="translate(312,279)"/>
<path d="M0 0 C1.485 0.99 1.485 0.99 3 2 C3 2.66 3 3.32 3 4 C3.84304687 4.12117188 4.68609375 4.24234375 5.5546875 4.3671875 C7.19824219 4.61855469 7.19824219 4.61855469 8.875 4.875 C9.96554688 5.03742188 11.05609375 5.19984375 12.1796875 5.3671875 C15 6 15 6 17 8 C11.39 8 5.78 8 0 8 C0 5.36 0 2.72 0 0 Z " fill="#F11297" transform="translate(226,284)"/>
<path d="M0 0 C0.33 1.32 0.66 2.64 1 4 C0.34 4 -0.32 4 -1 4 C-1.12375 4.94875 -1.2475 5.8975 -1.375 6.875 C-2 10 -2 10 -4 12 C-6.625 12.125 -6.625 12.125 -9 12 C-9 11.34 -9 10.68 -9 10 C-8.34 10 -7.68 10 -7 10 C-7 9.34 -7 8.68 -7 8 C-6.34 8 -5.68 8 -5 8 C-5 7.34 -5 6.68 -5 6 C-4.34 6 -3.68 6 -3 6 C-2.690625 5.195625 -2.38125 4.39125 -2.0625 3.5625 C-1 1 -1 1 0 0 Z " fill="#EC54AE" transform="translate(240,169)"/>
<path d="M0 0 C3.59147806 1.33397757 6.8843916 2.74983838 10 5 C10.8125 7.1875 10.8125 7.1875 11 9 C9.02 9.99 9.02 9.99 7 11 C6.87625 10.401875 6.7525 9.80375 6.625 9.1875 C5.7510907 6.12881746 4.67129582 4.3751359 1.875 2.8125 C1.25625 2.544375 0.6375 2.27625 0 2 C0 1.34 0 0.68 0 0 Z " fill="#EF18A0" transform="translate(345,260)"/>
<path d="M0 0 C6.09549711 0.28219894 12.09543773 1.05883389 17 5 C17.71875 7.13671875 17.71875 7.13671875 18 9 C17.20335937 8.59007812 16.40671875 8.18015625 15.5859375 7.7578125 C14.52632812 7.21898437 13.46671875 6.68015625 12.375 6.125 C11.33085937 5.59132813 10.28671875 5.05765625 9.2109375 4.5078125 C6.18198375 3.08545709 3.19356666 1.9877999 0 1 C0 0.67 0 0.34 0 0 Z " fill="#EF6BBD" transform="translate(217,340)"/>
<path d="M0 0 C1.65 0 3.3 0 5 0 C3.91801129 3.48640807 2.86630682 4.07292355 -0.4375 5.875 C-1.613125 6.24625 -2.78875 6.6175 -4 7 C-4.99 6.34 -5.98 5.68 -7 5 C-2.25 2 -2.25 2 0 2 C0 1.34 0 0.68 0 0 Z " fill="#F14AB1" transform="translate(328,267)"/>
<path d="M0 0 C0.33 0.66 0.66 1.32 1 2 C2.76826954 4.17282569 2.76826954 4.17282569 4.98046875 4.265625 C6.98888143 4.25140615 8.99584122 4.13142025 11 4 C6.82050327 6.78633115 4.06624674 8 -1 8 C-0.67 5.36 -0.34 2.72 0 0 Z " fill="#E969B7" transform="translate(175,339)"/>
<path d="M0 0 C0.94101563 0.00322266 1.88203125 0.00644531 2.8515625 0.00976562 C3.83640625 0.01814453 4.82125 0.02652344 5.8359375 0.03515625 C6.82851562 0.03966797 7.82109375 0.04417969 8.84375 0.04882812 C11.2995391 0.0606348 13.75520854 0.07710225 16.2109375 0.09765625 C16.2109375 0.42765625 16.2109375 0.75765625 16.2109375 1.09765625 C15.08816406 1.14664062 13.96539062 1.195625 12.80859375 1.24609375 C5.07707058 1.61968481 -2.28417167 2.05086784 -9.7890625 4.09765625 C-6.51835793 0.67828329 -4.72759453 -0.02847949 0 0 Z " fill="#F182CC" transform="translate(196.7890625,338.90234375)"/>
<path d="M0 0 C0 0.99 0 1.98 0 3 C-2.89690447 5.84952519 -5.26386827 6.42525449 -9.25 6.6875 C-10.14203125 6.75324219 -11.0340625 6.81898438 -11.953125 6.88671875 C-12.62859375 6.92410156 -13.3040625 6.96148437 -14 7 C-11.15497903 5.10331936 -8.42700115 3.76736522 -5.3125 2.375 C-4.31863281 1.92898437 -3.32476562 1.48296875 -2.30078125 1.0234375 C-1.54152344 0.68570313 -0.78226563 0.34796875 0 0 Z " fill="#EA5AAF" transform="translate(222,187)"/>
<path d="M0 0 C0.66 0 1.32 0 2 0 C1.50168276 3.68754757 0.89932357 5.60490662 -2 8 C-2.99 7.67 -3.98 7.34 -5 7 C-6.1875 3.9375 -6.1875 3.9375 -7 1 C-4.00667261 1.9977758 -3.05233685 2.7522025 -1 5 C-0.67 3.35 -0.34 1.7 0 0 Z " fill="#EA62B2" transform="translate(259,368)"/>
<path d="M0 0 C0.33 0.99 0.66 1.98 1 3 C-0.21484375 5.04296875 -0.21484375 5.04296875 -1.9375 7.1875 C-2.50339844 7.90292969 -3.06929687 8.61835938 -3.65234375 9.35546875 C-4.09707031 9.89816406 -4.54179687 10.44085938 -5 11 C-6.32 10.67 -7.64 10.34 -9 10 C-8.43410156 9.44570313 -7.86820313 8.89140625 -7.28515625 8.3203125 C-6.55167969 7.59585937 -5.81820312 6.87140625 -5.0625 6.125 C-4.33160156 5.40570313 -3.60070312 4.68640625 -2.84765625 3.9453125 C-0.94332001 2.12972808 -0.94332001 2.12972808 0 0 Z " fill="#ED65BB" transform="translate(160,250)"/>
<path d="M0 0 C3.3 0 6.6 0 10 0 C10 5.28 10 10.56 10 16 C9.34 15.67 8.68 15.34 8 15 C8 10.71 8 6.42 8 2 C5.36 1.67 2.72 1.34 0 1 C0 0.67 0 0.34 0 0 Z " fill="#F0139A" transform="translate(265,243)"/>
<path d="M0 0 C2.1519437 3.22791555 2.20086443 4.28400809 2 8 C-0.81814566 9.40907283 -2.17277204 8.50872691 -5.125 7.5625 C-6.03507812 7.27503906 -6.94515625 6.98757813 -7.8828125 6.69140625 C-8.58148438 6.46324219 -9.28015625 6.23507812 -10 6 C-10 5.67 -10 5.34 -10 5 C-3.25 4.875 -3.25 4.875 -1 6 C-1.020625 5.195625 -1.04125 4.39125 -1.0625 3.5625 C-1 1 -1 1 0 0 Z " fill="#E775BE" transform="translate(319,330)"/>
<path d="M0 0 C5.26964527 2.63482263 8.97903554 6.79943911 13 11 C12.01 11.33 11.02 11.66 10 12 C9.52949219 11.43410156 9.05898437 10.86820312 8.57421875 10.28515625 C7.95160156 9.55167969 7.32898438 8.81820313 6.6875 8.0625 C6.07261719 7.33160156 5.45773438 6.60070312 4.82421875 5.84765625 C3.04024481 3.76179634 3.04024481 3.76179634 0 3 C0 2.01 0 1.02 0 0 Z " fill="#EC61B7" transform="translate(237,325)"/>
<path d="M0 0 C-4.455 3.465 -4.455 3.465 -9 7 C-10 4 -10 4 -9 1 C-5.28195361 -1.0097548 -4.2593889 -1.06484722 0 0 Z " fill="#ED61B7" transform="translate(287,341)"/>
<path d="M0 0 C0.33 0 0.66 0 1 0 C1.31233884 5.93443789 0.88774951 9.75926941 -2 15 C-2.99 15.33 -3.98 15.66 -5 16 C-4.4987617 13.39356086 -3.74168947 11.50490483 -2.5 9.125 C-1.00217064 6.00452217 -0.40681373 3.41723537 0 0 Z " fill="#EC5CAE" transform="translate(223,249)"/>
<path d="M0 0 C4.60862461 1.49102561 7.53330244 3.69454418 11 7 C11 7.99 11 8.98 11 10 C7.81326038 8.59698853 5.67778594 6.92234929 3.25 4.4375 C2.63640625 3.81746094 2.0228125 3.19742188 1.390625 2.55859375 C0 1 0 1 0 0 Z " fill="#E851AB" transform="translate(252,191)"/>
<path d="M0 0 C2.475 0.495 2.475 0.495 5 1 C5 1.66 5 2.32 5 3 C5.66 3 6.32 3 7 3 C7.33 3.99 7.66 4.98 8 6 C9.49985609 7.66710346 9.49985609 7.66710346 11 9 C10.34 9.66 9.68 10.32 9 11 C7.49703315 9.35687553 5.99769719 7.71042916 4.5 6.0625 C3.6646875 5.14597656 2.829375 4.22945313 1.96875 3.28515625 C0 1 0 1 0 0 Z " fill="#EF77C2" transform="translate(157,283)"/>
<path d="M0 0 C2.35694954 0.09031574 4.71153582 0.24688128 7.0625 0.4375 C8.35285156 0.53933594 9.64320313 0.64117187 10.97265625 0.74609375 C12.47119141 0.87177734 12.47119141 0.87177734 14 1 C14 1.33 14 1.66 14 2 C9.71 2 5.42 2 1 2 C1 3.98 1 5.96 1 8 C0.67 8 0.34 8 0 8 C-0.38063221 5.6739143 -0.71269945 3.33944736 -1 1 C-0.67 0.67 -0.34 0.34 0 0 Z " fill="#EA7DC0" transform="translate(171,194)"/>
<path d="M0 0 C1.65 0 3.3 0 5 0 C5.33 1.32 5.66 2.64 6 4 C6.99 4 7.98 4 9 4 C8.67 4.99 8.34 5.98 8 7 C6.02 6.01 4.04 5.02 2 4 C2 3.34 2 2.68 2 2 C1.34 2 0.68 2 0 2 C0 1.34 0 0.68 0 0 Z " fill="#EC279B" transform="translate(248,186)"/>
<path d="M0 0 C2.97 0.495 2.97 0.495 6 1 C6.33 1.99 6.66 2.98 7 4 C7.66 4.33 8.32 4.66 9 5 C8.67 6.32 8.34 7.64 8 9 C6.66368764 7.6905332 5.33102075 6.37734515 4 5.0625 C3.2575 4.33160156 2.515 3.60070312 1.75 2.84765625 C0 1 0 1 0 0 Z " fill="#EC52AD" transform="translate(236,349)"/>
<path d="M0 0 C1.93719378 -0.05406122 3.87481921 -0.09282025 5.8125 -0.125 C6.89144531 -0.14820313 7.97039062 -0.17140625 9.08203125 -0.1953125 C12 0 12 0 15 2 C15 2.66 15 3.32 15 4 C15.66 4.33 16.32 4.66 17 5 C14 5 14 5 11.875 3.5625 C7.99879841 1.4558687 4.34971812 1.27481879 0 1 C0 0.67 0 0.34 0 0 Z " fill="#F270C6" transform="translate(232,292)"/>
<path d="M0 0 C0.66 0 1.32 0 2 0 C0.74809374 4.48599743 -0.79385533 7.59347128 -4 11 C-4.66 11 -5.32 11 -6 11 C-4.125 6.25 -4.125 6.25 -3 4 C-2.34 4 -1.68 4 -1 4 C-0.67 2.68 -0.34 1.36 0 0 Z " fill="#E65BB1" transform="translate(187,248)"/>
<path d="M0 0 C0.99 0 1.98 0 3 0 C1.5140084 4.59306496 -0.85014682 7.43569245 -4 11 C-4.33 10.01 -4.66 9.02 -5 8 C-4.67 7.34 -4.34 6.68 -4 6 C-3.34 6 -2.68 6 -2 6 C-2 5.01 -2 4.02 -2 3 C-1.34 3 -0.68 3 0 3 C0 2.01 0 1.02 0 0 Z " fill="#E858B1" transform="translate(245,189)"/>
<path d="M0 0 C-2.52940424 2.52940424 -4.44467004 2.36899061 -7.890625 2.71484375 C-10.73691758 3.09962034 -13.3184544 3.9944204 -16 5 C-15.67 4.34 -15.34 3.68 -15 3 C-14.34 3 -13.68 3 -13 3 C-13 2.34 -13 1.68 -13 1 C-8.62426048 0.40667939 -4.42471556 -0.13827236 0 0 Z " fill="#EC1F97" transform="translate(212,322)"/>
<path d="M0 0 C3.5742977 0.32493615 5.55712453 0.63870686 8.375 2.9375 C10 5 10 5 10 7 C8.02 6.34 6.04 5.68 4 5 C4 4.34 4 3.68 4 3 C2.68 2.34 1.36 1.68 0 1 C0 0.67 0 0.34 0 0 Z " fill="#F050AE" transform="translate(151,277)"/>
<path d="M0 0 C0.33 0 0.66 0 1 0 C1.32712342 6.13053511 1.39366878 10.62669111 -2 16 C-2.66 16 -3.32 16 -4 16 C-2.68 10.72 -1.36 5.44 0 0 Z " fill="#EE73BC" transform="translate(172,223)"/>
<path d="M0 0 C0.66 0 1.32 0 2 0 C2 0.66 2 1.32 2 2 C2.66 2 3.32 2 4 2 C4 3.65 4 5.3 4 7 C1 7 1 7 -1 6 C-0.67 4.02 -0.34 2.04 0 0 Z " fill="#F02BA5" transform="translate(179,276)"/>
<path d="M0 0 C-2.88087546 2.40072955 -5.56404834 4.47291037 -9 6 C-9 5.01 -9 4.02 -9 3 C-8.34 3 -7.68 3 -7 3 C-6.67 2.01 -6.34 1.02 -6 0 C-3 -1 -3 -1 0 0 Z " fill="#F053B3" transform="translate(349,275)"/>
<path d="M0 0 C1.1171875 1.703125 1.1171875 1.703125 2 4 C1.3203125 6.359375 1.3203125 6.359375 0.125 8.75 C-0.26429688 9.54921875 -0.65359375 10.3484375 -1.0546875 11.171875 C-1.36664063 11.77515625 -1.67859375 12.3784375 -2 13 C-3.18771723 9.57056481 -2.80226223 7.62215325 -1.5625 4.25 C-1.27503906 3.45078125 -0.98757813 2.6515625 -0.69140625 1.828125 C-0.46324219 1.22484375 -0.23507812 0.6215625 0 0 Z " fill="#EF1398" transform="translate(307,214)"/>
<path d="M0 0 C0.66 0 1.32 0 2 0 C2 1.32 2 2.64 2 4 C1.34 4 0.68 4 0 4 C-0.28875 4.639375 -0.5775 5.27875 -0.875 5.9375 C-2 8 -2 8 -4 9 C-3.42415568 6.61435923 -2.77772405 4.33317216 -2 2 C-1.34 2 -0.68 2 0 2 C0 1.34 0 0.68 0 0 Z " fill="#EE50B0" transform="translate(275,345)"/>
<path d="M0 0 C4.3177458 0.50797009 8.03302114 1.19682779 12 3 C11.67 3.66 11.34 4.32 11 5 C9.35153231 4.55123384 7.70626545 4.09069512 6.0625 3.625 C5.14597656 3.36976563 4.22945312 3.11453125 3.28515625 2.8515625 C1 2 1 2 0 0 Z " fill="#E355AF" transform="translate(225,321)"/>
<path d="M0 0 C1.8871875 0.061875 1.8871875 0.061875 3.8125 0.125 C3.8125 0.455 3.8125 0.785 3.8125 1.125 C2.2313708 1.63192692 0.64748617 2.13026443 -0.9375 2.625 C-1.81921875 2.9034375 -2.7009375 3.181875 -3.609375 3.46875 C-6.1875 4.125 -6.1875 4.125 -10.1875 4.125 C-3.8125 -0.125 -3.8125 -0.125 0 0 Z " fill="#EC63BB" transform="translate(296.1875,334.875)"/>
<path d="M0 0 C2 1 2 1 3.125 3.75 C3.91973395 6.70186896 4.17810598 8.97219837 4 12 C3.34 12 2.68 12 2 12 C1.34 8.04 0.68 4.08 0 0 Z " fill="#EB5FAE" transform="translate(174,307)"/>
<path d="M0 0 C5.94 0.99 5.94 0.99 12 2 C11.67 2.66 11.34 3.32 11 4 C3.57142857 4.28571429 3.57142857 4.28571429 0 2 C0 1.34 0 0.68 0 0 Z " fill="#EE66B9" transform="translate(261,239)"/>
<path d="M0 0 C0.66 0.33 1.32 0.66 2 1 C2.625 3.5625 2.625 3.5625 3 6 C1.35 5.67 -0.3 5.34 -2 5 C-2.33 3.68 -2.66 2.36 -3 1 C-2.01 0.67 -1.02 0.34 0 0 Z " fill="#EB1698" transform="translate(237,344)"/>
<path d="M0 0 C0.33 1.32 0.66 2.64 1 4 C-1.31 5.65 -3.62 7.3 -6 9 C-4.68775452 5.06326356 -3.08089673 2.77280706 0 0 Z " fill="#E965B0" transform="translate(267,328)"/>
<path d="M0 0 C1.95216435 3.90432869 2.50639991 6.72213252 3 11 C1.68 11 0.36 11 -1 11 C-1 10.34 -1 9.68 -1 9 C-0.34 9 0.32 9 1 9 C0.67 6.03 0.34 3.06 0 0 Z " fill="#F223A2" transform="translate(301,310)"/>
<path d="M0 0 C0.86625 0.3403125 0.86625 0.3403125 1.75 0.6875 C-4 5.6875 -4 5.6875 -6.25 5.6875 C-6.25 4.6975 -6.25 3.7075 -6.25 2.6875 C-4.08146295 0.51896295 -3.10906228 -0.43181421 0 0 Z " fill="#EB52AE" transform="translate(338.25,281.3125)"/>
<path d="M0 0 C-1 2 -1 2 -2.625 2.625 C-5.7660575 3.12095645 -8.82601831 3.06103811 -12 3 C-8.2391768 -0.7608232 -5.0273023 -0.25136512 0 0 Z " fill="#E92398" transform="translate(212,194)"/>
<path d="M0 0 C0.66 0 1.32 0 2 0 C1.40072174 3.35595828 0.15377564 5.37801226 -2 8 C-3 5 -3 5 -1.6875 2.3125 C-1.130625 1.549375 -0.57375 0.78625 0 0 Z " fill="#ED46B0" transform="translate(263,361)"/>
<path d="M0 0 C4 4.75 4 4.75 4 7 C4.66 7 5.32 7 6 7 C6 7.66 6 8.32 6 9 C3.525 8.01 3.525 8.01 1 7 C0.67 4.69 0.34 2.38 0 0 Z " fill="#ED5DB2" transform="translate(250,338)"/>
<path d="M0 0 C0.33 1.32 0.66 2.64 1 4 C-0.65 5.32 -2.3 6.64 -4 8 C-4.66 7.67 -5.32 7.34 -6 7 C-4.02 4.69 -2.04 2.38 0 0 Z " fill="#EB56AF" transform="translate(312,279)"/>
<path d="M0 0 C2.0625 0.4375 2.0625 0.4375 4 1 C3.67 2.32 3.34 3.64 3 5 C1.68 4.67 0.36 4.34 -1 4 C-1 1 -1 1 0 0 Z " fill="#F32DA3" transform="translate(187,243)"/>
<path d="M0 0 C-0.33 1.98 -0.66 3.96 -1 6 C-1.33 4.68 -1.66 3.36 -2 2 C-4.31 2.33 -6.62 2.66 -9 3 C-6.15236477 0.15236477 -3.96383452 0 0 0 Z " fill="#EE81C0" transform="translate(330,189)"/>
<path d="M0 0 C0.66 0 1.32 0 2 0 C1.34 3.63 0.68 7.26 0 11 C-2 7 -2 7 -1.125 3.25 C-0.75375 2.1775 -0.3825 1.105 0 0 Z " fill="#E662B2" transform="translate(319,304)"/>
<path d="M0 0 C0.99 0 1.98 0 3 0 C2.45773019 3.79588866 0.79872437 5.47211993 -2 8 C-1.47731534 5.23723823 -0.89130413 2.6739124 0 0 Z " fill="#EE54B6" transform="translate(257,293)"/>
<path d="M0 0 C0.33 1.32 0.66 2.64 1 4 C-1.97 4 -4.94 4 -8 4 C-5.53721199 1.53721199 -3.29323018 1.00228745 0 0 Z " fill="#EF209D" transform="translate(272,286)"/>
<path d="M0 0 C-1.28913487 0.67154933 -2.58140204 1.33708859 -3.875 2 C-4.59429687 2.37125 -5.31359375 2.7425 -6.0546875 3.125 C-8 4 -8 4 -10 4 C-10 3.01 -10 2.02 -10 1 C-3.375 -1.125 -3.375 -1.125 0 0 Z " fill="#ED78BE" transform="translate(359,271)"/>
<path d="M0 0 C2 3 4 6 6 9 C5.01 9 4.02 9 3 9 C3 8.34 3 7.68 3 7 C2.01 6.67 1.02 6.34 0 6 C0 4.02 0 2.04 0 0 Z " fill="#F076C6" transform="translate(275,254)"/>
<path d="M0 0 C0.33 0 0.66 0 1 0 C1.99 3.96 2.98 7.92 4 12 C0 8 0 8 -0.390625 5.859375 C-0.26041667 3.90625 -0.13020833 1.953125 0 0 Z " fill="#EA74BD" transform="translate(322,229)"/>
<path d="M0 0 C1.32 0 2.64 0 4 0 C4.33 0.66 4.66 1.32 5 2 C5.99 2.66 6.98 3.32 8 4 C2.25 4.125 2.25 4.125 0 3 C0 2.01 0 1.02 0 0 Z " fill="#EF159A" transform="translate(277,186)"/>
<path d="M0 0 C1.33855056 0.78281305 2.67073644 1.57651877 4 2.375 C5.11375 3.03628906 5.11375 3.03628906 6.25 3.7109375 C6.8275 4.13632813 7.405 4.56171875 8 5 C8 5.66 8 6.32 8 7 C6.68 7 5.36 7 4 7 C3.896875 6.360625 3.79375 5.72125 3.6875 5.0625 C3.460625 4.381875 3.23375 3.70125 3 3 C2.01 2.67 1.02 2.34 0 2 C0 1.34 0 0.68 0 0 Z " fill="#EA65B8" transform="translate(261,172)"/>
<path d="M0 0 C1.32 0 2.64 0 4 0 C4.33 2.31 4.66 4.62 5 7 C3.29115995 5.37660195 1.62553283 3.70680947 0 2 C0 1.34 0 0.68 0 0 Z " fill="#ED5EB5" transform="translate(245,358)"/>
<path d="M0 0 C2.125 0.375 2.125 0.375 4 1 C2.824375 1.928125 2.824375 1.928125 1.625 2.875 C-0.96837647 4.89858661 -0.96837647 4.89858661 -3 7 C-2.25 2.25 -2.25 2.25 0 0 Z " fill="#EF5AB7" transform="translate(279,271)"/>
<path d="M0 0 C3.0831351 1.19899698 6.06279492 2.47700477 9 4 C7.3125 4.6875 7.3125 4.6875 5 5 C2.25 3.6875 2.25 3.6875 0 2 C0 1.34 0 0.68 0 0 Z " fill="#F083C6" transform="translate(345,260)"/>
<path d="M0 0 C2.64 1.98 5.28 3.96 8 6 C7.34 6.66 6.68 7.32 6 8 C5.67 7.01 5.34 6.02 5 5 C2.98491642 4.26676204 2.98491642 4.26676204 1 4 C0.67 2.68 0.34 1.36 0 0 Z " fill="#EA68B5" transform="translate(334,251)"/>
<path d="M0 0 C1.65 0 3.3 0 5 0 C4.67 1.65 4.34 3.3 4 5 C3.01 4.67 2.02 4.34 1 4 C0.3125 1.9375 0.3125 1.9375 0 0 Z " fill="#F32EA8" transform="translate(305,209)"/>
<path d="M0 0 C2.97 0.495 2.97 0.495 6 1 C6 1.99 6 2.98 6 4 C6.66 4 7.32 4 8 4 C8 4.66 8 5.32 8 6 C4.63408134 4.55746343 2.48952921 2.66735273 0 0 Z " fill="#EA5BB4" transform="translate(263,201)"/>
<path d="M0 0 C0.99 0 1.98 0 3 0 C3.33 2.31 3.66 4.62 4 7 C3.01 6.67 2.02 6.34 1 6 C0.67 4.02 0.34 2.04 0 0 Z " fill="#E846A8" transform="translate(172,301)"/>
<path d="M0 0 C2.97 0.495 2.97 0.495 6 1 C6 1.99 6 2.98 6 4 C4.35 3.67 2.7 3.34 1 3 C0.67 2.01 0.34 1.02 0 0 Z " fill="#E741AB" transform="translate(278,263)"/>
<path d="M0 0 C0.99 0.33 1.98 0.66 3 1 C1.02 1.99 1.02 1.99 -1 3 C-1 3.66 -1 4.32 -1 5 C-2.98 5.99 -2.98 5.99 -5 7 C-5 6.01 -5 5.02 -5 4 C-4.01 4 -3.02 4 -2 4 C-1.34 2.68 -0.68 1.36 0 0 Z " fill="#EC7AB8" transform="translate(178,260)"/>
<path d="M0 0 C0.99 0.33 1.98 0.66 3 1 C1.515 3.475 1.515 3.475 0 6 C-2 3 -2 3 -2 1 C-1.34 0.67 -0.68 0.34 0 0 Z " fill="#EA1193" transform="translate(163,249)"/>
<path d="M0 0 C-1.0975223 2.99324263 -1.67682892 3.84610901 -4.625 5.25 C-5.40875 5.4975 -6.1925 5.745 -7 6 C-3.61538462 0 -3.61538462 0 0 0 Z " fill="#ED40AC" transform="translate(242,239)"/>
</svg>
